<?xml version="1.0" encoding="utf-8"?>
<!-- Generator: Adobe Illustrator 19.0.0, SVG Export Plug-In . SVG Version: 6.00 Build 0)  -->
<svg version="1.1" id="Capa_1" xmlns="http://www.w3.org/2000/svg" xmlns:xlink="http://www.w3.org/1999/xlink" x="0px" y="0px"
	 viewBox="-2539 2540.3 23.1 23.1" style="enable-background:new -2539 2540.3 23.1 23.1;" xml:space="preserve">
<style type="text/css">
	.st0{fill:#FFFFFF;}
</style>
<g>
	<path class="st0" d="M-2530.7,2544.7c0-0.1,0-0.5,0.1-0.9c0-0.5,0.2-1,0.5-1.5c0.3-0.5,0.8-1,1.6-1.4c0.7-0.4,1.8-0.6,3.1-0.6h3.8
		v4.2h-2.8c-0.3,0-0.5,0.1-0.8,0.3c-0.2,0.2-0.3,0.4-0.3,0.6v2.6h3.9c0,0.5-0.1,1-0.1,1.5l-0.2,1.3c-0.1,0.4-0.1,0.8-0.2,1.2h-3.5
		v11.5h-5.2v-11.5h-2.5v-3.9h2.5V2544.7z"/>
</g>
</svg>
