<?xml version="1.0" encoding="utf-8"?>
<!-- Generator: Adobe Illustrator 19.0.0, SVG Export Plug-In . SVG Version: 6.00 Build 0)  -->
<svg version="1.1" id="Layer_1" xmlns="http://www.w3.org/2000/svg" xmlns:xlink="http://www.w3.org/1999/xlink" x="0px" y="0px"
	 viewBox="-2466 2467.3 169.1 169.1" style="enable-background:new -2466 2467.3 169.1 169.1;" xml:space="preserve">
<style type="text/css">
	.st0{fill:#FFFFFF;}
</style>
<g>
	<path class="st0" d="M-2343.6,2467.3h-75.8c-25.7,0-46.7,20.9-46.7,46.7v75.8c0,25.7,20.9,46.7,46.7,46.7h75.8
		c25.7,0,46.7-20.9,46.7-46.7V2514C-2296.9,2488.2-2317.9,2467.3-2343.6,2467.3z M-2311.9,2589.7c0,17.5-14.2,31.7-31.7,31.7h-75.8
		c-17.5,0-31.7-14.2-31.7-31.7V2514c0-17.5,14.2-31.7,31.7-31.7h75.8c17.5,0,31.7,14.2,31.7,31.7L-2311.9,2589.7L-2311.9,2589.7z"/>
	<path class="st0" d="M-2381.5,2508.3c-24,0-43.6,19.5-43.6,43.6c0,24,19.5,43.6,43.6,43.6s43.6-19.5,43.6-43.6
		C-2337.9,2527.8-2357.4,2508.3-2381.5,2508.3z M-2381.5,2580.4c-15.7,0-28.6-12.8-28.6-28.6c0-15.8,12.8-28.6,28.6-28.6
		s28.6,12.8,28.6,28.6C-2352.9,2567.6-2365.7,2580.4-2381.5,2580.4z"/>
	<path class="st0" d="M-2336.1,2495.5c-2.9,0-5.7,1.2-7.8,3.2c-2.1,2-3.2,4.9-3.2,7.8c0,2.9,1.2,5.7,3.2,7.8c2,2,4.9,3.2,7.8,3.2
		c2.9,0,5.7-1.2,7.8-3.2c2.1-2.1,3.2-4.9,3.2-7.8c0-2.9-1.2-5.7-3.2-7.8C-2330.3,2496.7-2333.2,2495.5-2336.1,2495.5z"/>
</g>
</svg>
