<svg id="_x33_0" enable-background="new 0 0 64 64" height="512" viewBox="0 0 64 64" width="512" xmlns="http://www.w3.org/2000/svg"><path d="m59.837 39.989-1.582-1.266c-3.34-2.671-5.255-6.656-5.255-10.932v-5.322l4.418-3.681c1.005-.839 1.582-2.071 1.582-3.38 0-1.174-.457-2.278-1.293-3.115-.834-.834-1.942-1.293-3.121-1.293h-.172c-.87 0-1.702.25-2.414.717-.563-.369-1.202-.597-1.875-.678-2.779-3.781-7.172-6.039-11.878-6.039-1.82 0-3.636.358-5.335 1.016-.472-2.841-2.939-5.016-5.912-5.016h-4.655c-2.886 0-5.687.56-8.342 1.653-.098-.121-.184-.248-.296-.36-.834-.834-1.942-1.293-3.121-1.293h-.172c-.87 0-1.702.25-2.414.717-.712-.467-1.544-.717-2.414-.717h-.172c-1.179 0-2.287.459-3.127 1.298-.83.831-1.287 1.936-1.287 3.11 0 1.31.577 2.541 1.582 3.379l3.019 2.515c-.391 1.258-.601 2.559-.601 3.883 0 4.004 1.793 7.734 4.92 10.233l5.08 4.063v3.883c-1.757.722-3 2.447-3 4.461 0 .058.007.117.008.175h-.008v25h39 1.476l-.547-1.371c-.018-.043-1.552-3.93-1.868-7.441.917.513 1.96.812 3.062.812h1.447c4.648 0 8.43-3.781 8.43-8.429 0-2.574-1.153-4.974-3.163-6.582zm-7.837-25.575.707-.706c.456-.457 1.063-.708 1.707-.708h.172c.645 0 1.251.251 1.711.711.453.454.703 1.057.703 1.697 0 .714-.314 1.386-.863 1.843l-4.137 3.447-4.137-3.447c-.549-.457-.863-1.129-.863-1.843 0-.64.25-1.243.707-1.7.456-.457 1.063-.708 1.707-.708h.172c.645 0 1.251.251 1.707.708zm-49-9.006c0-.64.25-1.243.707-1.7.456-.457 1.063-.708 1.707-.708h.172c.644 0 1.251.251 1.707.708l.707.706.707-.706c.456-.457 1.063-.708 1.707-.708h.172c.645 0 1.251.251 1.711.711.453.454.703 1.057.703 1.697 0 .714-.314 1.386-.863 1.843l-4.137 3.447-4.137-3.447c-.549-.457-.863-1.129-.863-1.843zm8.169 18.448c-2.649-2.118-4.169-5.278-4.169-8.671 0-.838.104-1.665.29-2.475l.71.592 5.418-4.515c1.005-.838 1.582-2.07 1.582-3.379 0-.327-.044-.646-.113-.959 2.376-.959 4.88-1.449 7.458-1.449h4.655c2.206 0 4 1.794 4 4 0 2.205-1.795 4-4 4h-6c-1.103 0-2-.897-2-2s.897-2 2-2h1v-2h-1c-2.206 0-4 1.794-4 4 0 1.087.439 2.072 1.145 2.794-1.301 1.221-2.259 2.754-2.772 4.47-.393-.172-.82-.264-1.252-.264-1.721 0-3.121 1.4-3.121 3.121 0 2.56 1.619 4.805 4 5.635v2.164zm20.784-4.856h5.894c1.945.527 3.405 2.204 3.641 4.211l1.022 8.692c.269 2.285 1.147 4.464 2.505 6.306-1.315.36-2.476 1.177-3.252 2.342-.048.072-.087.15-.132.224l-2.315-.926c.431-.647.684-1.402.684-2.199v-3.545l-4.128-.459c-2.861-.317-5.099-2.632-5.319-5.503l-.504-6.549 1.951-.976v-.618c0-.335-.032-.667-.047-1zm8.047 36v-4.465l1.799-1.199c.33-.22.714-.336 1.201-.336.552 0 1 .449 1 1v1h2c1.103 0 2 .897 2 2s-.897 2-2 2zm-12-9v3h-4.17l-2.263-12.064c-.073-.388-.205-.75-.363-1.097 3.985 1.655 6.796 5.585 6.796 10.161zm-5-11.521v-2.725l1.197-.342c1.818-.52 3.328-1.669 4.358-3.156l.003.04c.294 3.828 3.277 6.914 7.093 7.337l2.349.262v1.755c0 .595-.263 1.155-.719 1.537l-2.589 2.156c-1.711 1.426-2.692 3.522-2.692 5.749 0 .644.093 1.285.257 1.908h-2.257v-3c0-5.004-2.846-9.349-7-11.521zm11.345 14.521c-.226-.609-.345-1.258-.345-1.908 0-1.632.719-3.168 1.973-4.213l1.795-1.495 3.146 1.258c-.018.093-.043.185-.056.278l-.733 5.127-1.428.953zm13.674.567c-.595-.352-1.279-.567-2.019-.567h-.172c-.416-1.164-1.544-2-2.92-2-.209 0-.415.018-.619.05l.55-3.846c.078-.549.281-1.082.589-1.542.693-1.041 1.853-1.662 3.104-1.662h.347c1.102 0 2.136.429 2.915 1.208l.186.185c.714.715 1.104 1.709 1.065 2.803-.053 1.564-.688 3.032-1.787 4.133zm-18.029-30.18-1.99.995v3.338c0 2.665-1.79 5.037-4.352 5.77l-2.648.756v3.391c-1.261-.41-2.604-.637-4-.637v-9.782l-.994-.248c-1.77-.442-3.006-2.025-3.006-3.849 0-.618.503-1.121 1.121-1.121.295 0 .584.12.793.328l1.7 1.7.489-2.447c.375-1.878 1.393-3.537 2.872-4.731.33.088.669.15 1.025.15h6c.564 0 1.108-.084 1.625-.23.835 2.121 1.296 4.343 1.365 6.617zm-13.165 15.613c1.359 0 2.526.969 2.777 2.304l2.293 12.23-2.45 1.633 1.109 1.664 2.749-1.831h14.697v4h-17.805c-1.945 0-3.602-1.39-3.94-3.305l-2.066-11.712c-.126-.711-.189-1.437-.189-2.158 0-1.557 1.268-2.825 2.825-2.825zm-2.825 15.421.286 1.622c.507 2.873 2.992 4.957 5.909 4.957h2.361c-.344.591-.556 1.268-.556 2s.212 1.409.556 2h-8.556zm12 10.579c-1.103 0-2-.897-2-2s.897-2 2-2h16.819l-.249 1.493c-.242 1.453-1.486 2.507-2.959 2.507zm17.597 0c.469-.625.81-1.358.946-2.178l.304-1.822h1.153c.869 0 1.668-.285 2.324-.757.335 1.859.861 3.607 1.25 4.757zm10.973-8h-1.447c-1.514 0-2.888-.788-3.656-2.053l1.205-1.204c.787-.787 1.387-1.719 1.791-2.743h1.537c.552 0 1 .449 1 1s-.448 1-1 1h-1v2h1c1.654 0 3-1.346 3-3s-1.346-3-3-3h-1.02c.034-.266.056-.535.065-.808.056-1.572-.546-3.107-1.652-4.214l-.186-.185c-1.016-1.017-2.328-1.631-3.743-1.764-1.633-1.743-2.687-3.983-2.967-6.359l-1.022-8.692c-.237-2.008-1.355-3.77-2.961-4.892.899-.734 1.486-1.837 1.486-3.086h-2c0 1.103-.897 2-2 2h-6.231c-.241-1.737-.668-3.441-1.326-5.085l-.003-.007c1.231-.866 2.126-2.179 2.438-3.705 1.677-.778 3.521-1.203 5.369-1.203 3.68 0 7.15 1.587 9.557 4.31-.56.22-1.077.548-1.517.988-.83.831-1.287 1.936-1.287 3.11 0 1.31.577 2.541 1.582 3.379l4.418 3.682v5.322c0 4.888 2.188 9.441 6.005 12.494l1.582 1.266c1.533 1.226 2.413 3.056 2.413 5.02 0 3.545-2.885 6.429-6.43 6.429z"/></svg>